<?xml version="1.0" encoding="UTF-8" standalone="no"?>
<svg
   xmlns:dc="http://purl.org/dc/elements/1.1/"
   xmlns:cc="http://creativecommons.org/ns#"
   xmlns:rdf="http://www.w3.org/1999/02/22-rdf-syntax-ns#"
   xmlns:svg="http://www.w3.org/2000/svg"
   xmlns="http://www.w3.org/2000/svg"
   xmlns:sodipodi="http://sodipodi.sourceforge.net/DTD/sodipodi-0.dtd"
   xmlns:inkscape="http://www.inkscape.org/namespaces/inkscape"
   version="1.1"
   id="svg10"
   xml:space="preserve"
   width="302.36267"
   height="207.87199"
   viewBox="0 0 302.36267 207.87199"
   sodipodi:docname="output.svg"
   inkscape:version="1.0.1 (3bc2e813f5, 2020-09-07)"><metadata
     id="metadata16"><rdf:RDF><cc:Work
         rdf:about=""><dc:format>image/svg+xml</dc:format><dc:type
           rdf:resource="http://purl.org/dc/dcmitype/StillImage" /><dc:title></dc:title></cc:Work></rdf:RDF></metadata><defs
     id="defs14"><clipPath
       clipPathUnits="userSpaceOnUse"
       id="clipPath28"><path
         d="M 0,0 H 2267.72 V 1559.04 H 0 Z"
         id="path26" /></clipPath></defs><sodipodi:namedview
     pagecolor="#ffffff"
     bordercolor="#666666"
     borderopacity="1"
     objecttolerance="10"
     gridtolerance="10"
     guidetolerance="10"
     inkscape:pageopacity="0"
     inkscape:pageshadow="2"
     inkscape:window-width="1886"
     inkscape:window-height="841"
     id="namedview12"
     showgrid="false"
     fit-margin-top="0"
     fit-margin-left="0"
     fit-margin-right="0"
     fit-margin-bottom="0"
     inkscape:zoom="0.71258902"
     inkscape:cx="396.66666"
     inkscape:cy="207.87204"
     inkscape:window-x="0"
     inkscape:window-y="0"
     inkscape:window-maximized="0"
     inkscape:current-layer="g18" /><g
     id="g18"
     inkscape:groupmode="layer"
     inkscape:label="output"
     transform="matrix(1.3333333,0,0,-1.3333333,0,207.87199)"><g
       id="g20"
       transform="scale(0.1)"><g
         id="g22"><g
           id="g24"
           clip-path="url(#clipPath28)"><path
             d="M 2267.72,-0.0117188 H 0 V 1559.05 H 2267.72 V -0.0117188"
             style="fill:#ffffff;fill-opacity:1;fill-rule:nonzero;stroke:none"
             id="path30" /><path
             d="m 1482.38,749.391 c 0,5.156 -1.21,8.808 -3.64,10.992 -2.44,2.187 -5.27,3.277 -8.56,3.277 -3.46,0 -6.45,-1.09 -8.91,-3.277 -2.48,-2.184 -3.72,-5.836 -3.72,-10.992 0,-5.157 1.24,-8.828 3.72,-10.996 2.46,-2.196 5.36,-3.27 8.61,-3.27 3.47,0 6.42,1.074 8.86,3.27 2.43,2.168 3.64,5.839 3.64,10.996 z m -15.91,-46.934 c -2.1,0 -3.91,0.137 -5.5,0.43 -0.9,-0.477 -1.78,-1.074 -2.6,-1.778 -0.85,-0.703 -1.6,-1.543 -2.3,-2.527 -0.7,-0.977 -1.27,-2.168 -1.72,-3.488 -0.45,-1.348 -0.66,-2.91 -0.66,-4.676 0,-7.648 4.2,-11.457 12.63,-11.457 7.24,0 12.56,1.426 16.06,4.25 3.45,2.82 5.19,6.062 5.19,9.727 0,3.457 -1.07,5.906 -3.29,7.363 -2.18,1.433 -5.08,2.156 -8.76,2.156 z m 33.12,59.719 h -8.91 c 2.28,-3.77 3.42,-8.02 3.42,-12.785 0,-3.774 -0.61,-7.157 -1.85,-10.184 -1.25,-3.027 -2.98,-5.578 -5.19,-7.648 -2.25,-2.098 -4.87,-3.672 -7.89,-4.754 -3,-1.094 -6.25,-1.653 -9.73,-1.653 -0.69,0 -1.34,0 -1.94,0 -0.6,0 -1.23,0.071 -1.91,0.176 -1.22,-0.527 -2.44,-1.297 -3.73,-2.402 -1.28,-1.074 -1.92,-2.508 -1.92,-4.285 0,-1.496 0.55,-2.688 1.7,-3.664 1.13,-0.907 2.99,-1.395 5.57,-1.395 h 9.05 c 3.37,0 6.51,-0.344 9.37,-1.055 2.87,-0.664 5.37,-1.769 7.52,-3.32 2.12,-1.535 3.78,-3.488 4.96,-5.859 1.19,-2.395 1.81,-5.266 1.81,-8.625 0,-3.856 -0.83,-7.383 -2.45,-10.555 -1.65,-3.176 -3.96,-5.879 -6.93,-8.184 -2.97,-2.257 -6.58,-4.054 -10.85,-5.343 -4.27,-1.278 -9.01,-1.922 -14.25,-1.922 -7.64,0 -13.43,1.668 -17.4,4.988 -3.96,3.293 -5.94,8.078 -5.94,14.316 0,2.668 0.46,4.993 1.4,6.915 0.93,1.933 2.06,3.613 3.35,5.058 1.28,1.445 2.61,2.57 3.94,3.418 1.33,0.82 2.4,1.524 3.18,1.992 v 0.313 c -3.07,2.277 -4.59,5.586 -4.59,9.953 0,1.875 0.36,3.504 1.12,4.902 0.74,1.375 1.58,2.5 2.52,3.406 0.93,0.891 1.88,1.614 2.82,2.161 0.95,0.535 1.66,0.918 2.14,1.101 v 0.305 c -3.65,1.68 -6.59,4.336 -8.83,7.937 -2.22,3.614 -3.33,8.254 -3.33,13.907 0,3.968 0.64,7.461 1.93,10.468 1.28,3.028 3.01,5.539 5.19,7.512 2.2,1.977 4.74,3.461 7.66,4.457 2.92,0.981 6.07,1.492 9.41,1.492 3.41,0 6.57,-0.601 9.52,-1.781 h 21.71 z m -81.11,-61.953 v 45.906 c 0,6.035 -1.03,10.371 -3.05,13.004 -2.03,2.621 -5.12,3.93 -9.28,3.93 -3.58,0 -6.55,-0.887 -8.93,-2.68 -2.38,-1.778 -4.25,-3.512 -5.65,-5.195 v -54.965 h -12.04 v 71.316 h 11 v -8.035 h 0.31 c 0.28,0.605 0.93,1.465 1.94,2.598 0.97,1.152 2.27,2.242 3.86,3.277 1.59,1.039 3.45,1.957 5.64,2.746 2.18,0.801 4.66,1.195 7.43,1.195 3.18,0 6.05,-0.48 8.62,-1.402 2.57,-0.953 4.75,-2.473 6.55,-4.547 1.76,-2.082 3.15,-4.781 4.15,-8.105 0.98,-3.305 1.47,-7.403 1.47,-12.266 v -46.777 z m -57.35,0 h -10.99 v 8.015 h -0.32 c -0.29,-0.586 -0.94,-1.465 -1.92,-2.586 -0.99,-1.164 -2.25,-2.238 -3.8,-3.273 -1.54,-1.043 -3.38,-1.973 -5.58,-2.754 -2.17,-0.801 -4.6,-1.199 -7.27,-1.199 -3.18,0 -6,0.469 -8.55,1.426 -2.51,0.945 -4.7,2.449 -6.46,4.531 -1.77,2.09 -3.14,4.773 -4.09,8.074 -0.94,3.32 -1.4,7.402 -1.4,12.258 v 46.824 h 12.02 v -45.926 c 0,-5.957 0.98,-10.168 2.9,-12.687 1.94,-2.52 4.95,-3.789 8.99,-3.789 3.48,0 6.41,0.859 8.77,2.597 2.39,1.731 4.27,3.411 5.65,5.11 v 54.695 h 12.05 z m -79.96,0 v 45.906 c 0,6.035 -1.01,10.371 -3.03,13.004 -2.05,2.621 -5.15,3.93 -9.3,3.93 -3.57,0 -6.52,-0.887 -8.92,-2.68 -2.36,-1.778 -4.24,-3.512 -5.64,-5.195 v -54.965 h -12.03 v 105.039 l 12.03,1.336 V 764.25 h 0.3 c 0.41,0.59 1.02,1.395 1.87,2.383 0.83,0.984 1.99,1.976 3.47,2.961 1.49,0.988 3.31,1.859 5.43,2.617 2.15,0.746 4.64,1.109 7.52,1.109 6.24,0 11.18,-2.035 14.84,-6.097 3.67,-4.078 5.51,-10.805 5.51,-20.223 v -46.777 z m -56.6,57.484 c -0.29,0.293 -0.77,0.758 -1.41,1.356 -0.64,0.578 -1.46,1.179 -2.46,1.769 -1,0.586 -2.17,1.117 -3.58,1.563 -1.36,0.441 -2.95,0.668 -4.73,0.668 -2.59,0 -4.99,-0.473 -7.2,-1.407 -2.24,-0.941 -4.18,-2.461 -5.81,-4.535 -1.64,-2.094 -2.92,-4.773 -3.87,-8.101 -0.93,-3.325 -1.39,-7.352 -1.39,-12.11 0,-5.254 0.41,-9.668 1.26,-13.211 0.83,-3.574 2,-6.426 3.48,-8.574 1.48,-2.109 3.29,-3.633 5.42,-4.582 2.14,-0.926 4.47,-1.406 7.05,-1.406 3.68,0 6.47,0.625 8.4,1.914 1.94,1.289 3.31,2.344 4.09,3.137 l 4.9,-8.34 c -0.48,-0.586 -1.22,-1.309 -2.15,-2.149 -0.93,-0.832 -2.14,-1.652 -3.65,-2.433 -1.47,-0.801 -3.29,-1.465 -5.41,-2.012 -2.13,-0.547 -4.59,-0.828 -7.35,-0.828 -3.98,0 -7.68,0.644 -11.14,1.941 -3.48,1.281 -6.5,3.399 -9.08,6.379 -2.57,2.977 -4.59,6.836 -6.07,11.57 -1.49,4.758 -2.25,10.664 -2.25,17.676 0,6.867 0.89,12.649 2.67,17.406 1.8,4.754 4.12,8.602 6.99,11.532 2.88,2.906 6.08,5.039 9.57,6.375 3.55,1.336 7.09,2.015 10.63,2.015 2.69,0 5.04,-0.257 7.07,-0.75 2.03,-0.492 3.75,-1.117 5.2,-1.855 1.46,-0.746 2.62,-1.539 3.56,-2.371 0.95,-0.84 1.71,-1.571 2.31,-2.164 z m -60.91,-0.586 c -0.8,0.879 -2.22,2.106 -4.32,3.645 -2.07,1.543 -4.81,2.297 -8.16,2.297 -3.19,0 -5.61,-0.739 -7.31,-2.231 -1.66,-1.477 -2.52,-3.262 -2.52,-5.344 0,-2.675 0.78,-4.886 2.32,-6.613 1.54,-1.75 3.87,-3.586 7.05,-5.566 l 4.45,-2.696 c 4.85,-2.863 8.67,-5.968 11.47,-9.269 2.75,-3.321 4.15,-7.598 4.15,-12.852 0,-5.633 -1.97,-10.398 -5.89,-14.277 -3.9,-3.848 -9.53,-5.789 -16.86,-5.789 -2.85,0 -5.4,0.301 -7.56,0.898 -2.19,0.606 -4.08,1.278 -5.72,2.078 -1.64,0.793 -3.01,1.672 -4.1,2.61 -1.08,0.957 -1.98,1.785 -2.67,2.597 l 5.8,9.5 c 0.58,-0.593 1.31,-1.289 2.15,-2.058 0.83,-0.813 1.86,-1.594 3.05,-2.317 1.18,-0.742 2.53,-1.355 4,-1.863 1.48,-0.508 3.24,-0.734 5.19,-0.734 3.58,0 6.31,0.773 8.19,2.375 1.9,1.57 2.81,3.484 2.81,5.789 0,1.672 -0.22,3.137 -0.66,4.387 -0.45,1.218 -1.11,2.343 -2,3.328 -0.87,0.988 -1.99,1.945 -3.27,2.824 -1.28,0.898 -2.77,1.875 -4.47,2.969 l -4.45,2.82 c -4.45,2.891 -7.93,5.898 -10.47,9.074 -2.54,3.18 -3.78,7.227 -3.78,12.188 0,2.679 0.51,5.125 1.56,7.367 1.03,2.203 2.49,4.144 4.37,5.785 1.89,1.641 4.08,2.922 6.61,3.875 2.53,0.922 5.23,1.402 8.1,1.402 2.77,0 5.15,-0.277 7.13,-0.824 1.99,-0.531 3.69,-1.238 5.13,-2.078 1.43,-0.848 2.62,-1.688 3.58,-2.535 0.93,-0.82 1.69,-1.567 2.29,-2.149 z m -42.05,3.863 c -0.31,0.2 -0.94,0.434 -1.94,0.75 -1,0.286 -2.34,0.442 -4.02,0.442 -3.75,0 -6.71,-1.028 -8.83,-3.043 -2.14,-2.035 -3.64,-4.242 -4.53,-6.613 v -52.297 h -12.04 v 71.316 h 10.99 v -9.672 h 0.3 c 0.5,1.391 1.12,2.754 1.93,4.094 0.79,1.332 1.79,2.531 2.96,3.555 1.21,1.047 2.61,1.867 4.24,2.468 1.64,0.586 3.59,0.895 5.89,0.895 1.66,0 3.04,-0.16 4.09,-0.461 1.03,-0.293 1.83,-0.535 2.43,-0.727 z m -59.01,-25.117 c 0,9.512 -1.37,16.418 -4.15,20.727 -2.77,4.316 -6.64,6.469 -11.58,6.469 -4.95,0 -8.8,-2.153 -11.53,-6.469 -2.72,-4.309 -4.08,-11.215 -4.08,-20.727 0,-9.512 1.38,-16.347 4.16,-20.488 2.77,-4.16 6.65,-6.242 11.6,-6.242 4.95,0 8.78,2.082 11.5,6.242 2.73,4.141 4.08,10.976 4.08,20.488 z m -43.82,0 c 0,6.543 0.77,12.188 2.31,16.946 1.52,4.757 3.61,8.644 6.23,11.648 2.63,3.043 5.64,5.262 9.08,6.691 3.4,1.438 7.04,2.168 10.91,2.168 3.96,0 7.63,-0.73 11,-2.168 3.36,-1.429 6.28,-3.648 8.76,-6.691 2.48,-3.004 4.44,-6.891 5.87,-11.648 1.44,-4.758 2.15,-10.403 2.15,-16.946 0,-6.64 -0.73,-12.344 -2.22,-17.09 -1.49,-4.726 -3.54,-8.613 -6.17,-11.652 -2.62,-3.027 -5.68,-5.223 -9.14,-6.621 -3.46,-1.367 -7.14,-2.078 -10.99,-2.078 -3.97,0 -7.63,0.711 -11,2.078 -3.37,1.398 -6.28,3.594 -8.77,6.621 -2.46,3.039 -4.43,6.887 -5.87,11.582 -1.43,4.688 -2.15,10.422 -2.15,17.16 z m -59.432,-35.644 v 102.519 h 50.362 l -0.88,-10.25 H 972.266 V 754.586 H 1006 v -10.254 h -33.734 v -44.109 z m -77.864,8.914 c 1.875,0 3.571,0.226 5.055,0.734 1.488,0.508 2.777,1.121 3.859,1.863 1.09,0.723 2.008,1.504 2.762,2.317 0.731,0.769 1.313,1.465 1.699,2.058 v 43.985 c -1.089,0.687 -2.347,1.273 -3.789,1.773 -1.437,0.508 -3.25,0.742 -5.425,0.742 -2.77,0 -5.368,-0.453 -7.801,-1.406 -2.422,-0.941 -4.528,-2.504 -6.321,-4.672 -1.777,-2.183 -3.179,-5.008 -4.226,-8.476 -1.035,-3.457 -1.559,-7.735 -1.559,-12.785 0,-4.95 0.418,-9.082 1.266,-12.422 0.844,-3.309 2,-5.977 3.488,-7.996 1.488,-2.024 3.168,-3.477 5.051,-4.375 1.879,-0.891 3.859,-1.34 5.941,-1.34 z m -28.23,25.683 c 0,7.227 0.941,13.282 2.832,18.137 1.879,4.863 4.305,8.777 7.277,11.731 2.965,2.968 6.34,5.089 10.098,6.316 3.766,1.254 7.531,1.875 11.301,1.875 2.269,0 4.258,-0.188 5.937,-0.531 1.688,-0.34 3.071,-0.77 4.16,-1.274 v 34.188 l 12.039,1.336 V 700.223 h -11.003 v 7.566 h -0.297 c -0.289,-0.594 -0.828,-1.406 -1.629,-2.461 -0.789,-1.035 -1.879,-2.07 -3.27,-3.113 -1.383,-1.035 -3.121,-1.914 -5.203,-2.676 -2.082,-0.742 -4.504,-1.113 -7.277,-1.113 -3.364,0 -6.559,0.672 -9.59,2.019 -3.016,1.348 -5.664,3.469 -7.945,6.379 -2.278,2.918 -4.086,6.688 -5.414,11.289 -1.344,4.61 -2.016,10.176 -2.016,16.707 z M 826.52,700.223 v 45.906 c 0,6.035 -1.024,10.371 -3.051,13.004 -2.039,2.621 -5.129,3.93 -9.297,3.93 -3.559,0 -6.527,-0.887 -8.906,-2.68 -2.371,-1.778 -4.258,-3.512 -5.641,-5.195 V 700.223 H 787.59 v 71.316 h 10.984 v -8.035 h 0.297 c 0.293,0.605 0.938,1.465 1.93,2.598 0.984,1.152 2.285,2.242 3.863,3.277 1.586,1.039 3.465,1.957 5.656,2.746 2.168,0.801 4.641,1.195 7.418,1.195 3.176,0 6.051,-0.48 8.625,-1.402 2.578,-0.953 4.746,-2.473 6.532,-4.547 1.789,-2.082 3.168,-4.781 4.16,-8.105 0.996,-3.305 1.496,-7.403 1.496,-12.266 v -46.777 z m -57.372,0 h -10.996 v 8.015 h -0.285 c -0.304,-0.586 -0.949,-1.465 -1.929,-2.586 -1,-1.164 -2.262,-2.238 -3.793,-3.273 -1.54,-1.043 -3.399,-1.973 -5.575,-2.754 -2.179,-0.801 -4.601,-1.199 -7.277,-1.199 -3.172,0 -6.023,0.469 -8.551,1.426 -2.519,0.945 -4.683,2.449 -6.449,4.531 -1.793,2.09 -3.156,4.773 -4.094,8.074 -0.953,3.32 -1.41,7.402 -1.41,12.258 v 46.824 h 12.031 v -45.926 c 0,-5.957 0.961,-10.168 2.891,-12.687 1.937,-2.52 4.926,-3.789 9,-3.789 3.457,0 6.391,0.859 8.758,2.597 2.394,1.731 4.261,3.411 5.648,5.11 v 54.695 h 12.031 z M 1279.99,899.23 c 0,5.149 -1.23,8.821 -3.65,10.993 -2.41,2.175 -5.27,3.261 -8.54,3.261 -3.47,0 -6.44,-1.086 -8.91,-3.261 -2.46,-2.172 -3.72,-5.844 -3.72,-10.993 0,-5.152 1.26,-8.82 3.72,-10.996 2.47,-2.183 5.35,-3.265 8.62,-3.265 3.46,0 6.42,1.082 8.83,3.265 2.42,2.176 3.65,5.844 3.65,10.996 z m -15.9,-46.949 c -2.07,0 -3.91,0.145 -5.5,0.446 -0.88,-0.508 -1.76,-1.082 -2.59,-1.782 -0.85,-0.711 -1.62,-1.55 -2.32,-2.531 -0.69,-0.984 -1.24,-2.148 -1.7,-3.488 -0.45,-1.336 -0.66,-2.906 -0.66,-4.68 0,-7.633 4.21,-11.445 12.62,-11.445 7.25,0 12.6,1.41 16.05,4.222 3.47,2.829 5.19,6.079 5.19,9.743 0,3.48 -1.07,5.914 -3.26,7.351 -2.18,1.438 -5.09,2.164 -8.77,2.164 z m 33.13,59.727 h -8.91 c 2.28,-3.77 3.42,-8.024 3.42,-12.778 0,-3.769 -0.61,-7.164 -1.85,-10.175 -1.23,-3.028 -2.97,-5.571 -5.2,-7.657 -2.24,-2.085 -4.87,-3.671 -7.88,-4.761 -3.02,-1.086 -6.28,-1.629 -9.72,-1.629 -0.7,0 -1.36,0 -1.96,0 -0.58,0 -1.23,0.058 -1.91,0.16 -1.19,-0.512 -2.43,-1.293 -3.74,-2.387 -1.27,-1.093 -1.91,-2.531 -1.91,-4.312 0,-1.485 0.57,-2.692 1.7,-3.649 1.15,-0.918 3.02,-1.406 5.58,-1.406 h 9.06 c 3.36,0 6.47,-0.348 9.37,-1.027 2.86,-0.711 5.38,-1.813 7.48,-3.34 2.14,-1.539 3.81,-3.496 5,-5.871 1.18,-2.395 1.78,-5.25 1.78,-8.629 0,-3.859 -0.83,-7.383 -2.46,-10.555 -1.64,-3.164 -3.93,-5.89 -6.91,-8.16 -2.98,-2.285 -6.58,-4.078 -10.84,-5.359 -4.28,-1.278 -9.02,-1.938 -14.27,-1.938 -7.63,0 -13.43,1.66 -17.38,4.988 -3.97,3.325 -5.94,8.102 -5.94,14.344 0,2.66 0.47,4.977 1.4,6.91 0.95,1.93 2.06,3.614 3.36,5.047 1.28,1.442 2.59,2.574 3.92,3.418 1.34,0.844 2.42,1.516 3.21,1.992 v 0.317 c -3.09,2.269 -4.61,5.597 -4.61,9.953 0,1.887 0.36,3.512 1.11,4.902 0.74,1.395 1.57,2.512 2.51,3.418 0.95,0.891 1.9,1.614 2.84,2.149 0.94,0.543 1.66,0.922 2.16,1.121 v 0.293 c -3.67,1.683 -6.63,4.34 -8.84,7.953 -2.23,3.613 -3.37,8.246 -3.37,13.89 0,3.965 0.67,7.454 1.95,10.473 1.29,3.02 3.02,5.524 5.19,7.512 2.2,1.976 4.73,3.461 7.67,4.457 2.91,0.98 6.06,1.48 9.44,1.48 3.36,0 6.53,-0.597 9.49,-1.789 h 21.72 z m -81.12,-61.961 v 45.914 c 0,6.039 -1.01,10.379 -3.07,13 -2,2.629 -5.09,3.937 -9.25,3.937 -3.58,0 -6.56,-0.89 -8.91,-2.675 -2.39,-1.778 -4.29,-3.512 -5.66,-5.207 v -54.969 h -12.04 v 71.316 h 10.99 v -8.027 h 0.31 c 0.28,0.605 0.93,1.473 1.92,2.613 0.98,1.145 2.28,2.219 3.88,3.266 1.56,1.035 3.45,1.965 5.64,2.75 2.17,0.797 4.66,1.187 7.42,1.187 3.18,0 6.04,-0.472 8.63,-1.414 2.57,-0.945 4.74,-2.445 6.52,-4.523 1.8,-2.082 3.19,-4.789 4.17,-8.098 0.98,-3.324 1.48,-7.418 1.48,-12.262 v -46.808 z m -57.35,0 h -11 v 8.016 h -0.3 c -0.31,-0.583 -0.95,-1.454 -1.93,-2.598 -0.99,-1.125 -2.26,-2.223 -3.79,-3.27 -1.53,-1.027 -3.4,-1.961 -5.58,-2.742 -2.17,-0.801 -4.59,-1.183 -7.28,-1.183 -3.16,0 -5.99,0.46 -8.52,1.414 -2.54,0.929 -4.7,2.437 -6.47,4.527 -1.8,2.082 -3.14,4.773 -4.09,8.098 -0.94,3.32 -1.41,7.394 -1.41,12.25 v 46.804 h 12.04 v -45.906 c 0,-5.949 0.95,-10.184 2.89,-12.707 1.93,-2.52 4.91,-3.789 8.99,-3.789 3.48,0 6.37,0.871 8.77,2.598 2.36,1.722 4.27,3.437 5.63,5.132 v 54.672 h 12.05 z m -93.76,8.914 c 1.89,0 3.57,0.262 5.05,0.742 1.49,0.488 2.78,1.125 3.87,1.856 1.09,0.75 2,1.507 2.75,2.32 0.75,0.785 1.31,1.469 1.71,2.07 v 43.985 c -1.08,0.679 -2.36,1.289 -3.79,1.781 -1.43,0.496 -3.25,0.734 -5.42,0.734 -2.79,0 -5.39,-0.461 -7.8,-1.406 -2.44,-0.953 -4.54,-2.508 -6.32,-4.684 -1.78,-2.171 -3.2,-5 -4.23,-8.461 -1.06,-3.476 -1.57,-7.73 -1.57,-12.781 0,-4.949 0.42,-9.097 1.26,-12.414 0.84,-3.312 2.01,-5.988 3.5,-8.019 1.49,-2.032 3.17,-3.493 5.04,-4.383 1.89,-0.891 3.87,-1.34 5.95,-1.34 z m -28.23,25.711 c 0,7.219 0.94,13.273 2.82,18.129 1.88,4.847 4.31,8.769 7.29,11.73 2.95,2.977 6.33,5.086 10.09,6.321 3.78,1.23 7.54,1.855 11.3,1.855 2.29,0 4.26,-0.172 5.94,-0.519 1.68,-0.348 3.09,-0.77 4.17,-1.266 v 34.172 l 12.03,1.344 V 850.047 h -11 v 7.586 h -0.29 c -0.29,-0.613 -0.83,-1.414 -1.63,-2.469 -0.81,-1.031 -1.89,-2.07 -3.28,-3.121 -1.38,-1.023 -3.12,-1.926 -5.2,-2.672 -2.07,-0.742 -4.5,-1.101 -7.28,-1.101 -3.37,0 -6.56,0.648 -9.58,1.992 -3.02,1.351 -5.68,3.468 -7.95,6.394 -2.27,2.922 -4.09,6.68 -5.42,11.293 -1.34,4.614 -2.01,10.18 -2.01,16.723 z m -18.71,-17.981 c 0,-2.968 0.41,-5.062 1.25,-6.25 0.83,-1.171 2.3,-1.765 4.39,-1.765 1.08,0 2,0.09 2.75,0.285 0.73,0.211 1.31,0.402 1.69,0.598 l 1.06,-8.922 c -0.6,-0.289 -1.69,-0.688 -3.27,-1.184 -1.58,-0.5 -3.73,-0.746 -6.4,-0.746 -4.06,0 -7.33,1.242 -9.81,3.719 -2.47,2.469 -3.71,6.887 -3.71,13.226 v 89.442 l 12.05,1.344 z m -36.269,71.918 c -2.468,0 -4.453,0.782 -5.941,2.368 -1.488,1.593 -2.231,3.671 -2.231,6.257 0,2.461 0.743,4.496 2.231,6.086 1.488,1.578 3.473,2.375 5.941,2.375 2.379,0 4.309,-0.797 5.793,-2.375 1.489,-1.59 2.231,-3.625 2.231,-6.086 0,-2.586 -0.742,-4.664 -2.231,-6.257 -1.484,-1.586 -3.414,-2.368 -5.793,-2.368 z m 5.949,-88.562 h -12.042 v 71.316 h 12.042 z m -41.757,28.672 c 0,5.558 -1.809,9.929 -5.426,13.152 -3.609,3.223 -8.789,4.828 -15.527,4.828 h -8.766 v -35.945 h 8.027 c 7.621,0 13.145,1.504 16.559,4.519 3.43,3.02 5.133,7.508 5.133,13.446 z m -1.934,47.254 c 0,4.754 -1.68,8.668 -5.047,11.734 -3.371,3.086 -8.672,4.613 -15.902,4.613 h -6.836 v -35.371 h 6.699 c 6.914,0 12.164,1.696 15.742,5.059 3.571,3.371 5.344,8.023 5.344,13.965 z m 13.074,0.449 c 0,-3.57 -0.441,-6.688 -1.328,-9.359 -0.89,-2.676 -2.113,-4.985 -3.644,-6.915 -1.536,-1.937 -3.325,-3.496 -5.348,-4.671 -2.035,-1.204 -4.141,-2.086 -6.313,-2.676 v -0.309 c 2.665,-0.492 5.172,-1.426 7.493,-2.816 2.34,-1.395 4.367,-3.121 6.097,-5.199 1.743,-2.079 3.133,-4.539 4.16,-7.372 1.043,-2.816 1.559,-5.906 1.559,-9.285 0,-4.054 -0.691,-7.765 -2.07,-11.129 -1.403,-3.382 -3.555,-6.293 -6.469,-8.765 -2.922,-2.481 -6.609,-4.414 -11.07,-5.805 -4.457,-1.383 -9.754,-2.074 -15.899,-2.074 H 903.336 V 952.57 h 19.754 c 6.043,0 11.219,-0.609 15.527,-1.843 4.313,-1.258 7.86,-3.016 10.625,-5.282 2.766,-2.277 4.781,-5.039 6.024,-8.25 1.226,-3.222 1.847,-6.812 1.847,-10.773 z m -96.277,-15.606 c -0.301,0.204 -0.949,0.454 -1.93,0.754 -0.992,0.285 -2.336,0.438 -4.011,0.438 -3.774,0 -6.715,-1.008 -8.844,-3.047 -2.141,-2.035 -3.645,-4.234 -4.531,-6.609 v -52.305 h -12.043 v 71.316 h 11.003 v -9.648 h 0.301 c 0.485,1.383 1.133,2.746 1.93,4.078 0.797,1.344 1.777,2.535 2.965,3.57 1.195,1.043 2.601,1.864 4.23,2.453 1.637,0.594 3.594,0.891 5.875,0.891 1.684,0 3.051,-0.152 4.086,-0.445 1.039,-0.297 1.856,-0.539 2.453,-0.742 z m -56.461,31.055 c 0,-2.285 -0.703,-4.109 -2.074,-5.496 -1.395,-1.383 -3.086,-2.086 -5.059,-2.086 -1.988,0 -3.664,0.703 -5.054,2.086 -1.387,1.387 -2.09,3.211 -2.09,5.496 0,2.285 0.703,4.121 2.09,5.5 1.39,1.387 3.066,2.078 5.054,2.078 1.973,0 3.664,-0.691 5.059,-2.078 1.371,-1.379 2.074,-3.215 2.074,-5.5 z m -22.883,0 c 0,-2.285 -0.695,-4.109 -2.082,-5.496 -1.387,-1.383 -3.066,-2.086 -5.055,-2.086 -1.984,0 -3.667,0.703 -5.046,2.086 -1.383,1.387 -2.09,3.211 -2.09,5.496 0,2.285 0.707,4.121 2.09,5.5 1.379,1.387 3.062,2.078 5.046,2.078 1.989,0 3.668,-0.691 5.055,-2.078 1.387,-1.379 2.082,-3.215 2.082,-5.5 z m 29.563,-91.824 h -10.992 v 8.016 h -0.293 c -0.313,-0.583 -0.946,-1.454 -1.938,-2.598 -0.992,-1.125 -2.246,-2.223 -3.793,-3.27 -1.523,-1.027 -3.391,-1.961 -5.566,-2.742 -2.18,-0.801 -4.61,-1.183 -7.285,-1.183 -3.165,0 -6.02,0.46 -8.536,1.414 -2.523,0.929 -4.679,2.437 -6.464,4.527 -1.79,2.082 -3.157,4.773 -4.094,8.098 -0.926,3.32 -1.403,7.394 -1.403,12.25 v 46.804 h 12.039 v -45.906 c 0,-5.949 0.958,-10.184 2.891,-12.707 1.934,-2.52 4.926,-3.789 8.984,-3.789 3.465,0 6.395,0.871 8.762,2.598 2.387,1.722 4.27,3.437 5.656,5.132 v 54.672 h 12.032 z m -61.813,61.523 h -14.558 v -61.523 h -12.039 v 61.523 h -8.622 v 8.024 l 8.622,1.633 v 14.257 c 0,3.86 0.543,7.18 1.648,9.961 1.078,2.766 2.516,5.051 4.297,6.825 1.785,1.789 3.867,3.078 6.246,3.871 2.375,0.797 4.906,1.179 7.574,1.179 2.574,0 4.754,-0.34 6.535,-1.039 1.785,-0.683 2.969,-1.238 3.571,-1.625 l -2.528,-9.961 c -0.597,0.391 -1.437,0.821 -2.527,1.274 -1.082,0.429 -2.426,0.66 -4.008,0.66 -2.871,0 -5.055,-0.895 -6.543,-2.668 -1.488,-1.789 -2.226,-5.059 -2.226,-9.816 v -12.782 h 16.046 z m 935.938,88.317 v 45.913 c 0,5.84 -0.84,10.05 -2.53,12.63 -1.67,2.57 -4.41,3.86 -8.16,3.86 -1.99,0 -3.74,-0.25 -5.3,-0.74 -1.52,-0.5 -2.86,-1.12 -4.06,-1.86 -1.21,-0.74 -2.23,-1.56 -3.12,-2.45 -0.89,-0.9 -1.63,-1.68 -2.23,-2.38 v -54.973 h -12.05 v 71.323 h 11 v -8.03 h 0.31 c 0.49,0.79 1.24,1.75 2.21,2.89 1,1.15 2.24,2.23 3.73,3.28 1.48,1.04 3.23,1.91 5.19,2.6 1.99,0.69 4.2,1.03 6.7,1.03 8.12,0 13.86,-3.16 17.23,-9.5 0.68,0.98 1.63,2.04 2.84,3.2 1.16,1.13 2.56,2.17 4.13,3.12 1.6,0.93 3.39,1.7 5.36,2.29 1.98,0.61 4.17,0.89 6.55,0.89 14.46,0 21.69,-8.41 21.69,-25.25 v -47.843 h -12.04 v 45.913 c 0,5.84 -1.04,10.05 -3.11,12.63 -2.08,2.57 -5.15,3.86 -9.23,3.86 -3.36,0 -6.15,-0.82 -8.38,-2.45 -2.25,-1.64 -4,-3.2 -5.27,-4.68 0.18,-1.11 0.34,-2.25 0.44,-3.5 0.09,-1.24 0.14,-2.55 0.14,-3.93 v -47.843 z m -55.86,0 h -10.99 v 8.023 h -0.31 c -0.29,-0.59 -0.94,-1.46 -1.91,-2.6 -1,-1.15 -2.27,-2.23 -3.81,-3.28 -1.53,-1.03 -3.38,-1.94 -5.57,-2.741 -2.18,-0.789 -4.61,-1.191 -7.26,-1.191 -3.19,0 -6.04,0.476 -8.58,1.418 -2.52,0.934 -4.66,2.444 -6.46,4.524 -1.76,2.09 -3.14,4.78 -4.09,8.1 -0.91,3.32 -1.41,7.4 -1.41,12.25 v 46.82 h 12.04 v -45.92 c 0,-5.94 0.98,-10.18 2.9,-12.7 1.94,-2.53 4.93,-3.8 9,-3.8 3.47,0 6.38,0.87 8.76,2.61 2.39,1.73 4.26,3.44 5.65,5.14 v 54.67 h 12.04 z m -74.28,88.553 c -2.5,0 -4.47,0.79 -5.97,2.38 -1.49,1.58 -2.23,3.66 -2.23,6.23 0,2.48 0.74,4.51 2.23,6.09 1.5,1.59 3.47,2.38 5.97,2.38 2.36,0 4.29,-0.79 5.79,-2.38 1.49,-1.58 2.22,-3.61 2.22,-6.09 0,-2.57 -0.73,-4.65 -2.22,-6.23 -1.5,-1.59 -3.43,-2.38 -5.79,-2.38 z m 5.93,-88.553 h -12.05 v 71.323 h 12.05 z m -23.92,60.773 c -0.3,0.19 -0.95,0.44 -1.92,0.73 -1.01,0.31 -2.35,0.45 -4.02,0.45 -3.76,0 -6.72,-1.02 -8.85,-3.04 -2.13,-2.03 -3.64,-4.24 -4.53,-6.61 v -52.303 h -12.03 v 71.323 h 10.99 v -9.66 h 0.28 c 0.52,1.38 1.15,2.75 1.95,4.08 0.78,1.35 1.79,2.52 2.97,3.57 1.21,1.03 2.61,1.85 4.23,2.45 1.64,0.59 3.6,0.9 5.88,0.9 1.69,0 3.04,-0.15 4.08,-0.46 1.03,-0.29 1.85,-0.54 2.44,-0.73 z m -69.98,2.52 c -4.26,0 -7.68,-1.79 -10.25,-5.35 -2.59,-3.56 -4.08,-8.72 -4.48,-15.44 h 26.01 c 0.1,0.49 0.19,1.2 0.24,2.14 0.04,0.95 0.08,1.95 0.08,3.06 0,4.95 -1.01,8.78 -3,11.51 -1.98,2.72 -4.85,4.08 -8.6,4.08 z m 22.58,-16.05 c 0,-3.08 -0.1,-5.72 -0.31,-7.95 -0.18,-2.22 -0.4,-4.18 -0.59,-5.86 h -36.41 c 0.4,-8.42 2.21,-14.62 5.44,-18.58 3.22,-3.96 7.85,-5.95 13.89,-5.95 2.07,0 3.96,0.26 5.65,0.75 1.68,0.49 3.11,1.09 4.37,1.78 1.23,0.69 2.3,1.39 3.12,2.09 0.85,0.68 1.47,1.24 1.87,1.63 l 4.45,-8.47 c -0.5,-0.5 -1.25,-1.21 -2.23,-2.16 -0.98,-0.93 -2.32,-1.87 -4.02,-2.82 -1.67,-0.94 -3.75,-1.754 -6.21,-2.453 -2.48,-0.688 -5.41,-1.039 -8.79,-1.039 -4.44,0 -8.47,0.738 -12.1,2.232 -3.61,1.48 -6.68,3.79 -9.22,6.9 -2.52,3.12 -4.48,7.09 -5.87,11.9 -1.39,4.8 -2.07,10.57 -2.07,17.3 0,6.34 0.7,11.82 2.14,16.43 1.44,4.59 3.41,8.39 5.88,11.35 2.48,2.99 5.33,5.18 8.61,6.62 3.26,1.44 6.8,2.15 10.57,2.15 6.81,0 12.18,-2.15 16.05,-6.46 3.85,-4.3 5.78,-10.76 5.78,-19.39 z m -58.4,14.26 h -15.6 v -39.52 c 0,-5.05 0.64,-8.48 1.93,-10.32 1.28,-1.83 3.47,-2.76 6.54,-2.76 1.79,0 3.33,0.26 4.61,0.75 1.28,0.49 2.22,0.95 2.82,1.34 l 1.63,-9.66 c -0.48,-0.39 -1.68,-1.02 -3.57,-1.857 -1.88,-0.832 -4.41,-1.265 -7.56,-1.265 -6.14,0 -10.76,1.715 -13.83,5.132 -3.08,3.42 -4.61,9.09 -4.61,17 v 41.16 H 1395 v 8.03 l 8.61,1.79 1.35,19.9 h 10.69 v -19.9 h 17.1 z m -51.72,-4.6 c -0.78,0.89 -2.2,2.11 -4.28,3.64 -2.1,1.54 -4.83,2.31 -8.18,2.31 -3.18,0 -5.6,-0.75 -7.29,-2.24 -1.69,-1.48 -2.52,-3.26 -2.52,-5.34 0,-2.69 0.76,-4.87 2.3,-6.62 1.54,-1.73 3.87,-3.58 7.06,-5.56 l 4.47,-2.68 c 4.84,-2.87 8.65,-5.97 11.42,-9.29 2.77,-3.32 4.16,-7.6 4.16,-12.85 0,-5.65 -1.96,-10.4 -5.87,-14.27 -3.91,-3.86 -9.53,-5.792 -16.86,-5.792 -2.87,0 -5.39,0.297 -7.57,0.898 -2.19,0.586 -4.09,1.284 -5.72,2.074 -1.64,0.8 -3.01,1.66 -4.09,2.59 -1.09,0.95 -1.98,1.82 -2.68,2.62 l 5.8,9.5 c 0.6,-0.59 1.32,-1.29 2.15,-2.08 0.85,-0.8 1.86,-1.56 3.06,-2.3 1.18,-0.75 2.53,-1.37 4,-1.86 1.48,-0.49 3.22,-0.75 5.2,-0.75 3.55,0 6.29,0.8 8.17,2.39 1.89,1.58 2.82,3.52 2.82,5.79 0,1.69 -0.21,3.14 -0.68,4.39 -0.44,1.23 -1.08,2.35 -1.98,3.34 -0.9,0.99 -2,1.93 -3.29,2.82 -1.26,0.89 -2.76,1.89 -4.44,2.96 l -4.46,2.84 c -4.45,2.87 -7.95,5.89 -10.49,9.07 -2.52,3.16 -3.78,7.22 -3.78,12.17 0,2.68 0.53,5.13 1.55,7.36 1.06,2.22 2.5,4.15 4.39,5.8 1.88,1.63 4.1,2.92 6.62,3.85 2.53,0.95 5.23,1.41 8.1,1.41 2.79,0 5.14,-0.26 7.13,-0.8 1.98,-0.55 3.7,-1.25 5.14,-2.09 1.43,-0.84 2.61,-1.68 3.55,-2.54 0.92,-0.82 1.73,-1.54 2.3,-2.14 z m -55.12,31.65 c -2.47,0 -4.43,0.79 -5.94,2.38 -1.49,1.58 -2.23,3.66 -2.23,6.23 0,2.48 0.74,4.51 2.23,6.09 1.51,1.59 3.47,2.38 5.94,2.38 2.37,0 4.32,-0.79 5.83,-2.38 1.47,-1.58 2.2,-3.61 2.2,-6.09 0,-2.57 -0.73,-4.65 -2.2,-6.23 -1.51,-1.59 -3.46,-2.38 -5.83,-2.38 z m 5.97,-88.553 h -12.05 v 71.323 h 12.05 z m -42.07,0 v 45.913 c 0,6.04 -1,10.37 -3.03,13 -2.03,2.63 -5.14,3.94 -9.31,3.94 -3.56,0 -6.53,-0.9 -8.89,-2.69 -2.4,-1.77 -4.26,-3.5 -5.67,-5.19 v -54.973 h -12.02 v 71.323 h 11 v -8.03 h 0.29 c 0.29,0.61 0.95,1.46 1.91,2.6 1,1.15 2.3,2.23 3.88,3.27 1.59,1.04 3.46,1.95 5.64,2.75 2.19,0.79 4.67,1.18 7.44,1.18 3.17,0 6.03,-0.46 8.61,-1.41 2.57,-0.93 4.75,-2.44 6.54,-4.52 1.78,-2.09 3.19,-4.78 4.18,-8.1 0.97,-3.32 1.46,-7.4 1.46,-12.26 V 999.887 Z M 1225,1088.44 c -2.46,0 -4.44,0.79 -5.92,2.38 -1.5,1.58 -2.24,3.66 -2.24,6.23 0,2.48 0.74,4.51 2.24,6.09 1.48,1.59 3.46,2.38 5.92,2.38 2.38,0 4.34,-0.79 5.83,-2.38 1.46,-1.58 2.2,-3.61 2.2,-6.09 0,-2.57 -0.74,-4.65 -2.2,-6.23 -1.49,-1.59 -3.45,-2.38 -5.83,-2.38 z m 5.96,-88.553 h -12.02 v 71.323 h 12.02 z m -79.49,0 v 45.913 c 0,5.84 -0.85,10.05 -2.54,12.63 -1.68,2.57 -4.4,3.86 -8.17,3.86 -1.98,0 -3.73,-0.25 -5.27,-0.74 -1.53,-0.5 -2.9,-1.12 -4.1,-1.86 -1.17,-0.74 -2.22,-1.56 -3.11,-2.45 -0.89,-0.9 -1.64,-1.68 -2.22,-2.38 v -54.973 h -12.03 v 71.323 H 1125 v -8.03 h 0.32 c 0.49,0.79 1.22,1.75 2.22,2.89 1,1.15 2.23,2.23 3.72,3.28 1.48,1.04 3.21,1.91 5.21,2.6 1.97,0.69 4.2,1.03 6.67,1.03 8.12,0 13.87,-3.16 17.24,-9.5 0.69,0.98 1.65,2.04 2.81,3.2 1.2,1.13 2.57,2.17 4.18,3.12 1.57,0.93 3.35,1.7 5.34,2.29 1.96,0.61 4.17,0.89 6.53,0.89 14.48,0 21.68,-8.41 21.68,-25.25 v -47.843 h -12.02 v 45.913 c 0,5.84 -1.03,10.05 -3.12,12.63 -2.07,2.57 -5.14,3.86 -9.2,3.86 -3.36,0 -6.16,-0.82 -8.4,-2.45 -2.23,-1.64 -4,-3.2 -5.27,-4.68 0.19,-1.11 0.34,-2.25 0.44,-3.5 0.1,-1.24 0.15,-2.55 0.15,-3.93 v -47.843 z m -58.69,56.903 c -0.79,0.89 -2.25,2.11 -4.31,3.64 -2.09,1.54 -4.8,2.31 -8.18,2.31 -3.15,0 -5.59,-0.75 -7.28,-2.24 -1.68,-1.48 -2.51,-3.26 -2.51,-5.34 0,-2.69 0.75,-4.87 2.3,-6.62 1.53,-1.73 3.87,-3.58 7.05,-5.56 l 4.46,-2.68 c 4.86,-2.87 8.66,-5.97 11.44,-9.29 2.78,-3.32 4.16,-7.6 4.16,-12.85 0,-5.65 -1.96,-10.4 -5.86,-14.27 -3.92,-3.86 -9.55,-5.792 -16.86,-5.792 -2.89,0 -5.4,0.297 -7.59,0.898 -2.18,0.586 -4.09,1.284 -5.73,2.074 -1.63,0.8 -3,1.66 -4.08,2.59 -1.08,0.95 -1.98,1.82 -2.68,2.62 l 5.8,9.5 c 0.6,-0.59 1.31,-1.29 2.16,-2.08 0.85,-0.8 1.86,-1.56 3.05,-2.3 1.19,-0.75 2.52,-1.37 4,-1.86 1.5,-0.49 3.22,-0.75 5.21,-0.75 3.55,0 6.29,0.8 8.14,2.39 1.9,1.58 2.86,3.52 2.86,5.79 0,1.69 -0.25,3.14 -0.68,4.39 -0.45,1.23 -1.12,2.35 -2.01,3.34 -0.9,0.99 -1.97,1.93 -3.26,2.82 -1.29,0.89 -2.77,1.89 -4.46,2.96 l -4.45,2.84 c -4.47,2.87 -7.96,5.89 -10.48,9.07 -2.53,3.16 -3.8,7.22 -3.8,12.17 0,2.68 0.52,5.13 1.57,7.36 1.03,2.22 2.5,4.15 4.39,5.8 1.87,1.63 4.08,2.92 6.6,3.85 2.53,0.95 5.24,1.41 8.1,1.41 2.77,0 5.15,-0.26 7.13,-0.8 1.98,-0.55 3.68,-1.25 5.11,-2.09 1.45,-0.84 2.64,-1.68 3.59,-2.54 0.94,-0.82 1.7,-1.54 2.3,-2.14 z m -69.4,6.39 c -4.25,0 -7.67,-1.79 -10.24,-5.35 -2.59,-3.56 -4.06,-8.72 -4.46,-15.44 h 26.01 c 0.1,0.49 0.16,1.2 0.21,2.14 0.05,0.95 0.08,1.95 0.08,3.06 0,4.95 -0.99,8.78 -2.98,11.51 -1.98,2.72 -4.85,4.08 -8.62,4.08 z m 22.6,-16.05 c 0,-3.08 -0.11,-5.72 -0.31,-7.95 -0.2,-2.22 -0.39,-4.18 -0.58,-5.86 h -36.41 c 0.4,-8.42 2.21,-14.62 5.42,-18.58 3.22,-3.96 7.86,-5.95 13.89,-5.95 2.08,0 3.97,0.26 5.64,0.75 1.69,0.49 3.15,1.09 4.39,1.78 1.24,0.69 2.29,1.39 3.14,2.09 0.83,0.68 1.44,1.24 1.84,1.63 l 4.45,-8.47 c -0.49,-0.5 -1.23,-1.21 -2.22,-2.16 -0.98,-0.93 -2.32,-1.87 -4,-2.82 -1.69,-0.94 -3.78,-1.754 -6.25,-2.453 -2.48,-0.688 -5.4,-1.039 -8.77,-1.039 -4.46,0 -8.5,0.738 -12.11,2.232 -3.62,1.48 -6.68,3.79 -9.21,6.9 -2.52,3.12 -4.48,7.09 -5.87,11.9 -1.387,4.8 -2.082,10.57 -2.082,17.3 0,6.34 0.714,11.82 2.16,16.43 1.432,4.59 3.382,8.39 5.862,11.35 2.47,2.99 5.36,5.18 8.62,6.62 3.26,1.44 6.79,2.15 10.55,2.15 6.84,0 12.19,-2.15 16.05,-6.46 3.86,-4.3 5.8,-10.76 5.8,-19.39 z m -89.601,-38.34 c 1.875,0 3.559,0.26 5.043,0.75 1.5,0.49 2.781,1.11 3.871,1.86 1.086,0.74 2.008,1.5 2.754,2.3 0.738,0.79 1.305,1.49 1.695,2.08 v 43.98 c -1.082,0.7 -2.344,1.29 -3.789,1.79 -1.433,0.49 -3.242,0.74 -5.418,0.74 -2.765,0 -5.375,-0.47 -7.801,-1.41 -2.421,-0.94 -4.535,-2.5 -6.312,-4.67 -1.781,-2.2 -3.199,-5.03 -4.25,-8.48 -1.024,-3.46 -1.547,-7.73 -1.547,-12.78 0,-4.95 0.422,-9.09 1.266,-12.41 0.839,-3.31 2,-5.99 3.48,-8.02 1.488,-2.04 3.18,-3.49 5.063,-4.39 1.879,-0.88 3.859,-1.34 5.945,-1.34 z m -28.231,25.7 c 0,7.24 0.934,13.29 2.825,18.14 1.882,4.85 4.3,8.76 7.269,11.74 2.981,2.97 6.348,5.07 10.11,6.32 3.761,1.24 7.527,1.86 11.293,1.86 2.273,0 4.257,-0.19 5.941,-0.53 1.687,-0.34 3.074,-0.76 4.156,-1.27 v 34.18 l 12.039,1.34 V 999.887 h -10.988 v 7.573 h -0.297 c -0.297,-0.6 -0.851,-1.4 -1.633,-2.45 -0.797,-1.04 -1.89,-2.08 -3.277,-3.12 -1.383,-1.03 -3.121,-1.941 -5.195,-2.679 -2.086,-0.738 -4.512,-1.113 -7.286,-1.113 -3.359,0 -6.558,0.668 -9.589,2.012 -3.012,1.33 -5.664,3.46 -7.95,6.38 -2.273,2.93 -4.078,6.69 -5.421,11.3 -1.329,4.6 -1.997,10.17 -1.997,16.7 z m -26.757,-34.603 v 45.913 c 0,6.04 -1.008,10.37 -3.036,13 -2.039,2.63 -5.128,3.94 -9.292,3.94 -3.567,0 -6.536,-0.9 -8.918,-2.69 -2.372,-1.77 -4.25,-3.5 -5.637,-5.19 v -54.973 h -12.043 v 71.323 h 10.996 v -8.03 h 0.301 c 0.297,0.61 0.929,1.46 1.937,2.6 0.981,1.15 2.27,2.23 3.856,3.27 1.582,1.04 3.468,1.95 5.644,2.75 2.188,0.79 4.656,1.18 7.434,1.18 3.168,0 6.039,-0.46 8.621,-1.41 2.57,-0.93 4.758,-2.44 6.535,-4.52 1.781,-2.09 3.168,-4.78 4.149,-8.1 1,-3.32 1.496,-7.4 1.496,-12.26 v -46.803 z m -57.344,0 h -11.004 v 8.023 h -0.289 c -0.297,-0.59 -0.941,-1.46 -1.938,-2.6 -0.988,-1.15 -2.238,-2.23 -3.785,-3.28 -1.535,-1.03 -3.394,-1.94 -5.582,-2.741 -2.168,-0.789 -4.597,-1.191 -7.277,-1.191 -3.172,0 -6.012,0.476 -8.531,1.418 -2.536,0.934 -4.684,2.444 -6.477,4.524 -1.785,2.09 -3.144,4.78 -4.074,8.1 -0.953,3.32 -1.418,7.4 -1.418,12.25 v 46.82 h 12.035 v -45.92 c 0,-5.94 0.969,-10.18 2.891,-12.7 1.937,-2.53 4.937,-3.8 8.996,-3.8 3.465,0 6.394,0.87 8.769,2.61 2.375,1.73 4.25,3.44 5.649,5.14 v 54.67 h 12.035 z m -79.649,28.673 c 0,5.55 -1.808,9.93 -5.421,13.15 -3.622,3.22 -8.797,4.83 -15.524,4.83 h -8.769 v -35.96 h 8.027 c 7.625,0 13.148,1.52 16.562,4.53 3.418,3.03 5.125,7.52 5.125,13.45 z m -1.925,47.26 c 0,4.75 -1.688,8.66 -5.067,11.73 -3.359,3.07 -8.66,4.61 -15.89,4.61 h -6.832 v -35.37 h 6.683 c 6.934,0 12.188,1.68 15.75,5.05 3.574,3.37 5.356,8.03 5.356,13.98 z m 13.07,0.44 c 0,-3.56 -0.445,-6.69 -1.34,-9.38 -0.887,-2.67 -2.098,-4.96 -3.633,-6.9 -1.543,-1.92 -3.32,-3.49 -5.355,-4.68 -2.024,-1.18 -4.129,-2.07 -6.309,-2.67 v -0.29 c 2.672,-0.5 5.176,-1.43 7.5,-2.83 2.332,-1.39 4.371,-3.12 6.09,-5.2 1.738,-2.08 3.125,-4.52 4.164,-7.35 1.035,-2.83 1.559,-5.93 1.559,-9.3 0,-4.05 -0.696,-7.76 -2.074,-11.12 -1.383,-3.38 -3.547,-6.31 -6.477,-8.78 -2.91,-2.47 -6.598,-4.41 -11.059,-5.8 -4.461,-1.38 -9.765,-2.073 -15.898,-2.073 H 721.762 V 1102.4 h 19.754 c 6.043,0 11.222,-0.61 15.535,-1.85 4.301,-1.24 7.844,-2.99 10.617,-5.28 2.77,-2.27 4.777,-5.02 6.02,-8.24 1.23,-3.23 1.855,-6.82 1.855,-10.77"
             style="fill:#231f20;fill-opacity:1;fill-rule:nonzero;stroke:none"
             id="path32" /><path
             d="m 610.133,600.34 h 18.719 V 350.609 H 585.156 V 600.34 h 24.977"
             style="fill:#f2cf04;fill-opacity:1;fill-rule:nonzero;stroke:none"
             id="path34" /><path
             d="m 610.133,851.285 h 18.719 V 600.34 h -43.696 v 250.945 h 24.977"
             style="fill:#ed1c24;fill-opacity:1;fill-rule:nonzero;stroke:none"
             id="path36" /><path
             d="m 393.785,1008.14 c 0.332,2.79 0.528,5.68 0.528,8.63 0,1.61 0.011,3.48 -0.188,5.59 24.883,0.36 46.719,18.28 46.719,38.91 0,10.5 -6.844,18.4 -10.707,23.14 0.863,0.17 1.738,0.38 2.621,0.6 3.644,-3.16 13.984,-14.43 13.984,-28.67 0,-24.73 -24.726,-47.69 -52.957,-48.2 z m -25.078,86.15 c -0.465,2.75 -1.512,5.25 -3.105,7.39 0.074,2.52 1.113,4.93 5.175,2.95 -2.203,-2.25 -0.504,-6.22 -0.504,-6.22 0,0 4.497,2.08 3.559,5.04 6.676,-1.6 1.887,-10.54 -5.125,-9.16 z m -5.781,-12.7 c -0.899,3.7 -2.781,7.48 -5.196,10.34 -2.203,2.59 -5.839,5.68 -10.718,5.68 -2.242,0 -5.989,-1.05 -8.36,-2.05 -0.91,1.61 -2.636,5.53 -2.636,7.29 0,1.81 3.054,3.65 8.91,3.65 12.879,0 20.594,-5.82 20.594,-15.59 0,-3.43 -1.364,-6.56 -2.594,-9.32 z m 33.086,-166.078 c 1.492,0 2.23,-0.242 3.093,-0.559 3.711,-10.098 18.004,-29.133 18.598,-29.945 l 0.141,-0.168 0.219,0.051 c 3.496,0.554 12.445,1.91 19.945,1.91 h 0.176 c 0.808,0 1.722,0 2.32,-0.574 0.476,-0.493 0.719,-1.336 0.719,-2.551 0,-1.867 -0.789,-5.051 -1.727,-6.406 -2.625,2.863 -6.894,4.144 -13.699,4.144 -2.059,0 -4.473,-0.617 -5.781,-0.953 l -0.543,-0.121 -0.61,-0.16 3.942,-3.938 c 6.062,-6.058 11.304,-11.301 11.304,-14.781 0,-2.098 -2.043,-4.824 -3.921,-6.051 -0.407,6.399 -6.864,14.918 -13.133,19.703 l -0.535,0.403 -0.11,-2.235 c -0.086,-1.527 -0.222,-3.828 -0.222,-6.258 0,-12.164 -1.231,-14 -5.442,-14 -0.648,0 -1.644,0.188 -2.254,0.422 2.383,2.922 3.309,6.797 3.309,13.586 l -0.031,3.137 -0.04,2.52 c 0,2.785 0.301,4.847 0.516,6.507 l 0.121,0.938 -0.664,0.086 c -1.969,0.277 -5.625,0.773 -8.426,0.773 -6.007,0 -10.062,-0.547 -13.027,-3.328 -1.945,1.57 -3.941,4.285 -3.941,6 0,2.539 1.582,2.734 3.64,2.734 1.051,0 2.028,-0.152 3.379,-0.312 2.586,-0.387 6.473,-0.961 14.465,-0.961 h 0.5 l -0.145,0.496 c -2.035,5.801 -7.601,14.231 -16.543,25.082 0.821,2.91 1.61,4.809 4.407,4.809 z m -77.09,-29.891 -0.156,-0.496 h 0.496 c 7.996,0 11.886,0.574 14.465,0.961 1.355,0.16 2.332,0.312 3.375,0.312 2.062,0 3.652,-0.195 3.652,-2.734 0,-1.715 -2.008,-4.43 -3.945,-6 -2.954,2.781 -7.028,3.328 -13.024,3.328 -2.805,0 -6.472,-0.496 -8.433,-0.773 l -0.317,-0.039 -0.347,-0.047 0.113,-0.938 c 0.234,-1.66 0.519,-3.722 0.519,-6.507 l -0.039,-2.52 -0.027,-3.137 c 0,-6.789 0.937,-10.664 3.309,-13.586 -0.61,-0.234 -1.606,-0.422 -2.25,-0.422 -4.219,0 -5.45,1.836 -5.45,14 0,2.43 -0.125,4.731 -0.215,6.258 l -0.117,2.242 -0.535,-0.41 c -6.262,-4.785 -12.726,-13.304 -13.105,-19.703 -1.891,1.227 -3.938,3.953 -3.938,6.051 0,3.48 5.246,8.723 11.309,14.781 l 3.492,3.481 0.43,0.457 -1.137,0.281 c -1.301,0.336 -3.723,0.953 -5.781,0.953 -6.817,0 -11.067,-1.281 -13.7,-4.144 -0.941,1.355 -1.73,4.539 -1.73,6.406 0,1.215 0.242,2.058 0.707,2.551 0.605,0.574 1.527,0.574 2.336,0.574 h 0.168 c 7.508,0 16.457,-1.356 19.957,-1.91 l 0.215,-0.051 0.133,0.168 c 0.593,0.812 14.894,19.847 18.609,29.945 0.848,0.317 1.59,0.559 3.078,0.559 2.816,0 3.594,-1.899 4.414,-4.809 -8.945,-10.851 -14.5,-19.281 -16.531,-25.082 z M 280.32,1056.34 c 0,14.24 10.34,25.51 13.989,28.67 0.867,-0.22 1.75,-0.43 2.621,-0.6 -3.871,-4.74 -10.707,-12.64 -10.707,-23.14 0,-20.83 22.257,-38.91 47.445,-38.91 -0.16,-1.79 -0.246,-3.66 -0.246,-5.59 0,-3.07 0.164,-5.93 0.48,-8.63 -28.496,0.17 -53.582,23.29 -53.582,48.2 z m 191.118,-43.87 c 12.777,-20.208 22.781,-19.865 37.886,-19.865 -12.504,9.575 -20.769,21.845 -24.707,28.125 l -23.344,37.36 c -2.293,11.53 -8.253,22.32 -17.191,30.34 3.004,1.14 5.496,2.34 7.012,3.47 -15.25,0 -30.364,7.74 -38.676,7.74 -5.344,0 -8.785,-3.18 -8.785,-7.41 0.351,-4.7 5.191,-9.5 14.144,-9.5 2.024,0 4.621,0.27 7.461,0.74 4.856,-6.75 8.762,-12.85 8.762,-21.57 0,-16.35 -19.559,-29.1 -39.309,-29.1 -1.105,0 -2.171,0.04 -3.285,0.13 -1.797,4.05 -7.734,10.86 -7.734,18.61 0,12.98 8.469,23.6 8.469,36.48 0,8 -3.899,12.95 -5.403,15.01 2.434,2.24 5.078,5.02 5.707,6.9 -1.414,-0.6 -3.082,-0.68 -5.531,-0.68 -9.465,0 -17.172,2.46 -24.691,2.46 -4.289,0 -5.446,-1.32 -5.446,-2.58 0,-0.47 0.071,-0.94 0.2,-1.17 -1.606,0.63 -3.114,1.04 -4.903,1.37 -2.207,0.42 -4.597,0.63 -7.148,0.63 -9.133,0 -12.383,-3.82 -12.383,-7.11 0,-2.78 2.191,-7.85 4.664,-11.71 3.57,1.79 7.844,3.01 9.805,3.01 4.84,0 9.164,-4.62 11.449,-10.1 -3.27,-0.39 -3.895,-0.54 -7.195,-0.54 -8.899,0 -14.95,3.19 -16.192,3.19 -0.125,0 -0.355,-0.06 -0.355,-0.26 0,-1.25 2.511,-4.55 7.488,-6.37 6.547,-2.39 16.371,-3.38 18.008,-3.65 0,-0.29 -1.664,-3.4 -3.516,-3.98 -0.394,-0.14 -0.703,-0.15 -1.168,-0.05 -6.84,1.36 -8.75,1.92 -17.426,5.22 -0.269,0.1 -0.425,-0.06 -0.425,-0.34 0,-3.43 8.886,-11.02 16.851,-13.91 -6.648,-8.5 -14.965,-17.18 -18.883,-30.43 -1.101,-0.09 -2.175,-0.13 -3.289,-0.13 -19.742,0 -39.3,12.75 -39.3,29.1 0,8.72 3.91,14.82 8.761,21.57 2.848,-0.47 5.43,-0.74 7.457,-0.74 8.953,0 13.797,4.8 14.157,9.5 0,4.23 -3.446,7.41 -8.801,7.41 -8.309,0 -23.41,-7.74 -38.672,-7.74 1.516,-1.13 4.004,-2.33 7.008,-3.47 -8.93,-8.02 -14.899,-18.81 -17.184,-30.34 l -23.34,-37.36 c -3.929,-6.28 -12.218,-18.55 -24.726,-28.125 15.109,0 25.125,-0.343 37.906,19.865 l 11.973,19.17 c 0.882,-2.49 1.98,-4.91 3.261,-7.28 l -23.812,-38.098 c -3.957,-6.313 -12.164,-18.489 -24.711,-28.121 15.09,0 25.121,-0.352 37.894,19.847 l 20.497,32.822 c 1.539,-1.63 3.144,-3.24 4.855,-4.75 l -28.926,-46.31 c -3.976,-6.324 -12.14,-18.453 -24.726,-28.094 15.109,0 25.136,-0.363 37.906,19.856 l 28.195,45.14 c 1.856,-1.175 3.766,-2.32 5.731,-3.382 l -34.41,-55.071 c -3.985,-6.336 -12.149,-18.441 -24.723,-28.109 15.113,0 25.129,-0.34 37.906,19.859 l 35.434,56.735 c 2.105,-0.817 4.226,-1.571 6.386,-2.274 l -40.042,-64.09 c -3.915,-6.246 -12.262,-18.554 -24.708,-28.097 15.114,0 25.125,-0.34 37.899,19.847 l 42.687,68.313 c 0.43,-0.074 0.86,-0.141 1.286,-0.227 1.164,-3.703 1.968,-7.136 1.968,-10.574 0,-21.465 -14.086,-40.426 -30.98,-55.055 1.07,-0.48 2.957,-0.629 4.703,-0.629 3.484,0 5.746,0.176 7.328,0.457 -3.93,-8.89 -12.344,-20.398 -16.59,-26.343 -5.527,0.996 -13.582,1.781 -18.859,1.781 -5.508,0 -6.137,-3.242 -6.137,-6.117 0,-5.012 2.34,-8.996 5.078,-11.219 1.016,2.559 3.075,5.981 13.278,5.981 0.179,0 0.547,-0.024 1.019,-0.055 -2.988,-3.317 -12.308,-10.852 -12.308,-16.922 0,-4.023 4.41,-10.047 10.222,-10.047 -0.351,1.289 -0.304,2.484 -0.304,3.379 0,4.926 4.359,10.684 8.035,14.691 -0.102,-1.203 -0.047,-1.078 -0.047,-2.461 0,-11.636 1.055,-16.976 8.43,-16.976 3.621,0 6.125,1.98 6.98,2.582 -4.797,4.414 -5.039,7.887 -5.039,14.402 0.008,1.696 0.012,3.352 0.035,5.649 0.016,1.488 -0.004,3.461 -0.242,4.89 2.641,0.364 3.711,0.364 5.738,0.364 0,0 10.485,0.824 13.012,-4.614 2.848,2.61 6.976,6.285 6.976,10.344 0,2.688 -1.269,5.723 -6.671,5.723 -2.047,0 -8.481,-1.258 -13.856,-1.258 1.442,3.226 7.883,12.641 13.457,19.461 0.848,-2.649 2.16,-5.512 5.082,-7.852 0.403,4.391 2.985,18.285 9.848,26.407 0.808,-5.485 1.887,-11.125 1.887,-22.993 0,-28.89 -6.954,-50.226 -21.7,-54.3 1.914,-3.34 5.977,-6.336 10.192,-6.336 5.386,0 8.336,6.093 11.324,11.839 1.562,-4.238 5.867,-14.644 10.195,-14.644 4.313,0 8.625,10.406 10.184,14.644 2.996,-5.746 5.937,-11.839 11.336,-11.839 4.195,0 8.269,2.996 10.187,6.336 -14.746,4.074 -21.703,25.41 -21.703,54.3 0,11.868 1.078,17.508 1.875,22.993 6.887,-8.122 9.461,-22.016 9.86,-26.407 2.918,2.34 4.238,5.203 5.097,7.852 5.563,-6.82 11.996,-16.235 13.449,-19.461 -5.378,0 -11.82,1.258 -13.867,1.258 -5.394,0 -6.656,-3.035 -6.656,-5.723 0,-4.059 4.125,-7.734 6.965,-10.344 2.523,5.438 13.019,4.614 13.019,4.614 2.032,0 3.094,0 5.743,-0.364 -0.243,-1.429 -0.258,-3.402 -0.25,-4.89 0.023,-2.297 0.031,-3.953 0.035,-5.649 0,-6.515 -0.246,-9.988 -5.039,-14.402 0.863,-0.602 3.363,-2.582 6.98,-2.582 7.379,0 8.434,5.34 8.434,16.976 0,1.383 0.05,1.258 -0.047,2.461 3.676,-4.007 8.031,-9.765 8.031,-14.691 0,-0.895 0.055,-2.09 -0.309,-3.379 5.825,0 10.239,6.024 10.239,10.047 0,6.07 -9.328,13.605 -12.324,16.922 0.488,0.031 0.832,0.055 1.027,0.055 10.195,0 12.25,-3.422 13.281,-5.981 2.719,2.223 5.063,6.207 5.063,11.219 0,2.875 -0.61,6.117 -6.133,6.117 -5.274,0 -13.317,-0.785 -18.863,-1.781 -4.247,5.945 -12.653,17.453 -16.582,26.343 1.582,-0.281 3.843,-0.457 7.332,-0.457 1.746,0 3.621,0.149 4.707,0.629 -16.903,14.629 -30.993,33.59 -30.993,55.055 0,3.438 0.817,6.871 1.965,10.574 0.426,0.086 0.875,0.153 1.297,0.227 l 42.684,-68.313 c 12.773,-20.187 22.793,-19.847 37.89,-19.847 -12.441,9.543 -20.797,21.851 -24.691,28.097 l -40.059,64.09 c 2.172,0.703 4.297,1.457 6.391,2.274 l 35.434,-56.735 c 12.785,-20.199 22.789,-19.859 37.914,-19.859 -12.575,9.668 -20.739,21.773 -24.715,28.109 l -34.414,55.071 c 1.953,1.062 3.863,2.207 5.715,3.382 l 28.207,-45.14 c 12.773,-20.219 22.789,-19.856 37.886,-19.856 -12.57,9.641 -20.734,21.77 -24.715,28.094 l -28.918,46.31 c 1.704,1.51 3.325,3.12 4.848,4.75 l 20.496,-32.822 c 12.785,-20.199 22.789,-19.847 37.903,-19.847 -12.559,9.632 -20.747,21.808 -24.711,28.121 l -23.809,38.098 c 1.273,2.37 2.371,4.79 3.25,7.28 l 11.981,-19.17"
             style="fill:#231f20;fill-opacity:1;fill-rule:nonzero;stroke:none"
             id="path38" /><path
             d="M 628.852,1099.76 V 850.047 h -43.696 v 249.713 h 43.696"
             style="fill:#231f20;fill-opacity:1;fill-rule:nonzero;stroke:none"
             id="path40" /><path
             d="m 750.512,1396.34 c 0,7.44 -3.067,11.47 -11.199,11.47 -2.54,0 -11.633,-0.44 -11.633,-13.65 v -21.36 c 0,-13.82 4.015,-17.32 11.633,-17.32 5.781,0 9.617,1.58 11.289,2.8 v 18.9 h -11.641 v 7 h 19.687 v -30.72 c -5.156,-2.8 -11.203,-4.71 -19.335,-4.71 -13.391,0 -19.864,6.91 -19.864,24.41 v 20.73 c 0,12.6 6.473,20.66 19.864,20.66 13.652,0 20.125,-5 19.597,-18.21 h -8.398"
             style="fill:#231f20;fill-opacity:1;fill-rule:nonzero;stroke:none"
             id="path42" /><path
             d="m 773.695,1350.05 v 63.18 h 32.551 v -7 h -24.504 v -20.3 h 22.754 v -7 h -22.754 v -21.87 h 25.031 v -7.01 h -33.078"
             style="fill:#231f20;fill-opacity:1;fill-rule:nonzero;stroke:none"
             id="path44" /><path
             d="m 816.84,1350.05 v 63.18 h 31.32 v -7 h -23.273 v -20.3 h 22.051 v -7 h -22.051 v -28.88 h -8.047"
             style="fill:#231f20;fill-opacity:1;fill-rule:nonzero;stroke:none"
             id="path46" /><path
             d="m 887.797,1420.67 h -8.223 v 9.09 h 8.223 z m -0.262,-47.87 v 21.36 c 0,13.21 -9.101,13.65 -11.633,13.65 -2.539,0 -11.64,-0.44 -11.64,-13.65 v -21.36 c 0,-13.82 4.023,-17.32 11.64,-17.32 7.61,0 11.633,3.5 11.633,17.32 z m -15.137,47.87 h -8.222 v 9.09 h 8.222 z m -16.367,-47.51 v 20.73 c 0,12.6 6.473,20.66 19.871,20.66 13.379,0 19.856,-8.06 19.856,-20.66 v -20.73 c 0,-17.5 -6.477,-24.41 -19.856,-24.41 -13.398,0 -19.871,6.91 -19.871,24.41"
             style="fill:#231f20;fill-opacity:1;fill-rule:nonzero;stroke:none"
             id="path48" /><path
             d="m 917.633,1386.1 h 12.078 c 5.773,0 8.574,4.99 8.574,10.51 0,4.54 -2.273,9.62 -8.496,9.62 h -12.156 z m 0,-6.99 v -29.06 h -8.047 v 63.18 h 21.785 c 11.203,0 15.137,-7.88 15.137,-15.75 0,-7.43 -4.11,-13.13 -11.551,-14.44 v -0.17 c 7.266,-1.14 9.891,-3.6 10.332,-16.27 0.078,-2.72 0.957,-12.61 2.176,-16.55 h -8.399 c -2.273,4.38 -1.746,12.6 -2.441,21.01 -0.613,7.7 -6.836,8.05 -9.539,8.05 h -9.453"
             style="fill:#231f20;fill-opacity:1;fill-rule:nonzero;stroke:none"
             id="path50" /><path
             d="m 966.637,1357.06 h 7.605 c 11.203,0 15.313,4.2 15.313,18.89 v 12.78 c 0,12.78 -3.934,17.5 -12.332,17.5 h -10.586 z m -8.059,56.17 h 19.434 c 8.047,0 13.828,-2.89 16.972,-9.62 2.539,-5.34 2.805,-17.94 2.805,-19.95 0,-13.48 -1.23,-21.27 -3.859,-25.47 -3.407,-5.42 -9.793,-8.14 -20.821,-8.14 h -14.531 v 63.18"
             style="fill:#231f20;fill-opacity:1;fill-rule:nonzero;stroke:none"
             id="path52" /><path
             d="m 1011.87,1350.05 v 63.18 h 32.55 v -7 h -24.5 v -20.3 h 22.75 v -7 h -22.75 v -21.87 h 25.03 v -7.01 h -33.08"
             style="fill:#231f20;fill-opacity:1;fill-rule:nonzero;stroke:none"
             id="path54" /><path
             d="m 1063.51,1386.1 h 12.05 c 5.78,0 8.58,4.99 8.58,10.51 0,4.54 -2.27,9.62 -8.5,9.62 h -12.13 z m 0,-6.99 v -29.06 h -8.07 v 63.18 h 21.78 c 11.21,0 15.14,-7.88 15.14,-15.75 0,-7.43 -4.1,-13.13 -11.54,-14.44 v -0.17 c 7.24,-1.14 9.88,-3.6 10.31,-16.27 0.1,-2.72 0.97,-12.61 2.2,-16.55 h -8.39 c -2.29,4.38 -1.76,12.6 -2.46,21.01 -0.61,7.7 -6.84,8.05 -9.54,8.05 h -9.43"
             style="fill:#231f20;fill-opacity:1;fill-rule:nonzero;stroke:none"
             id="path56" /><path
             d="m 1139.7,1413.23 v -7 h -16.62 v -56.18 h -8.05 v 56.18 h -16.64 v 7 h 41.31"
             style="fill:#231f20;fill-opacity:1;fill-rule:nonzero;stroke:none"
             id="path58" /><path
             d="m 1189.41,1350.05 h -9.63 l -18.28,63.18 h 8.73 l 14.45,-55.57 h 0.16 l 14.78,55.57 h 8.25 l -18.46,-63.18"
             style="fill:#231f20;fill-opacity:1;fill-rule:nonzero;stroke:none"
             id="path60" /><path
             d="m 1247.32,1372.8 v 21.36 c 0,13.21 -9.08,13.65 -11.62,13.65 -2.54,0 -11.64,-0.44 -11.64,-13.65 v -21.36 c 0,-13.82 4.02,-17.32 11.64,-17.32 7.6,0 11.62,3.5 11.62,17.32 z m -31.49,0.36 v 20.73 c 0,12.6 6.47,20.66 19.87,20.66 13.38,0 19.84,-8.06 19.84,-20.66 v -20.73 c 0,-17.5 -6.46,-24.41 -19.84,-24.41 -13.4,0 -19.87,6.91 -19.87,24.41"
             style="fill:#231f20;fill-opacity:1;fill-rule:nonzero;stroke:none"
             id="path62" /><path
             d="m 1277.16,1350.05 h -7.52 v 63.18 h 13.03 l 15.92,-53.03 h 0.19 l 16.1,53.03 h 13.3 v -63.18 h -8.05 v 56.18 h -0.19 l -17.66,-56.18 h -7.62 l -17.32,56.18 h -0.18 v -56.18"
             style="fill:#231f20;fill-opacity:1;fill-rule:nonzero;stroke:none"
             id="path64" /></g></g></g></g></svg>
